<svg xmlns="http://www.w3.org/2000/svg" xmlns:xlink="http://www.w3.org/1999/xlink" zoomAndPan="magnify" viewBox="147 262 300 300" preserveAspectRatio="xMidYMid meet" version="1.0"><defs><clipPath id="ea1cbf6f26"><path d="M 1 0.566406 L 299.976562 0.566406 L 299.976562 299.101562 L 1 299.101562 Z M 1 0.566406 " clip-rule="nonzero"/></clipPath><clipPath id="ea05c4c3d9"><rect x="0" width="300" y="0" height="300"/></clipPath></defs><g transform="matrix(1, 0, 0, 1, 147, 262)"><g clip-path="url(#ea05c4c3d9)"><g clip-path="url(#ea1cbf6f26)"></g><path fill="#f5e642" d="M 191.367188 178.667969 L 183.3125 178.824219 L 167.941406 179.570312 L 136.773438 179.621094 L 117.710938 178.925781 L 106.976562 178.488281 L 98.714844 178.097656 L 80.011719 176.554688 L 65.945312 175.015625 C 55.371094 173.859375 45.179688 172.199219 34.910156 169.191406 C 32.027344 168.34375 28.644531 164.882812 28.644531 161.792969 L 28.625 111.484375 C 28.625 108.730469 31.660156 105.539062 33.972656 104.640625 C 38.992188 102.675781 43.847656 101.941406 49.058594 100.976562 C 55.945312 99.703125 62.695312 98.492188 69.742188 97.90625 L 74.429688 97.523438 L 80.308594 96.820312 L 87.867188 96.097656 L 95.78125 95.589844 L 104.171875 95.097656 L 116.753906 94.40625 L 135.527344 93.886719 L 165.921875 93.855469 L 185.542969 94.4375 L 197.738281 95.097656 L 204.253906 95.484375 L 208.59375 95.75 L 224.734375 97.234375 L 228.960938 97.691406 L 234.101562 98.21875 L 239.375 98.984375 L 253.960938 101.234375 C 258.941406 102.003906 263.914062 102.832031 268.4375 104.949219 C 271.101562 106.191406 273.425781 109.109375 273.398438 111.910156 L 273.289062 124.578125 L 273.195312 150.613281 C 273.183594 154.675781 273.765625 158.636719 273.195312 162.671875 C 272.753906 165.757812 269.867188 168.371094 266.964844 169.148438 L 260.285156 170.929688 C 244.527344 174.28125 228.792969 176.101562 212.71875 177.359375 L 204.261719 178.015625 L 195.863281 178.308594 L 191.367188 178.683594 Z M 240.554688 117.121094 L 229.871094 117.175781 L 218.347656 150.613281 L 217.921875 146.054688 L 204.601562 145.960938 L 205.175781 142.699219 L 205.117188 117.722656 C 201.527344 118.195312 199.277344 118.195312 195.589844 117.488281 L 195.527344 155.09375 L 227.371094 155.15625 L 235.140625 132.21875 C 236.277344 134.445312 236.789062 136.453125 236.992188 138.234375 L 234.835938 138.976562 C 234.5 139.09375 234.511719 140.257812 234.402344 140.589844 L 231.777344 148.136719 L 240.742188 148.300781 L 242.972656 154.792969 L 245.824219 163.085938 L 247.398438 167.898438 L 252.347656 167.070312 C 259.953125 165.804688 268.96875 164.375 268.941406 156.621094 L 268.804688 114.785156 C 268.792969 110.984375 264.667969 108.089844 261.496094 107.472656 L 246.933594 104.644531 L 236.851562 103.226562 L 221.023438 101.488281 L 214.511719 100.996094 L 207.996094 100.503906 L 201.4375 100.007812 L 196.398438 99.511719 L 184.953125 99.242188 L 159.84375 98.785156 C 154.125 98.679688 148.566406 98.546875 142.8125 98.691406 L 132.566406 98.953125 L 116.164062 99.242188 L 105.546875 99.578125 L 99.5625 100.019531 L 92.597656 100.554688 L 86.96875 100.984375 L 80.433594 101.480469 L 74.652344 102.015625 L 63.558594 103.445312 L 66.441406 112.046875 L 77.679688 110.867188 L 85.992188 110.371094 L 90.179688 109.964844 L 95.835938 109.476562 L 104.683594 108.964844 L 113.492188 108.597656 L 122.796875 108.304688 L 143.742188 108.070312 C 148.386719 108.019531 152.625 107.972656 157.257812 108.03125 L 178.632812 108.320312 L 186.578125 108.542969 L 196.316406 108.976562 L 204.316406 109.40625 L 212.644531 110.097656 L 219.636719 110.625 L 226.109375 111.066406 L 229.871094 111.488281 L 244.75 113.390625 L 257.867188 115.554688 C 259.285156 115.789062 260.210938 116.519531 260.210938 118.003906 L 260.148438 156.335938 L 254.1875 157.609375 L 251.785156 150.917969 L 249.257812 143.226562 L 240.566406 117.113281 Z M 215.21875 162.433594 L 207.976562 162.898438 L 197.253906 163.453125 L 191.199219 163.738281 L 177.277344 164.296875 L 172.148438 164.601562 L 149.796875 164.738281 L 124.460938 164.367188 L 115.460938 163.933594 L 106.976562 163.523438 L 100.929688 163.296875 L 93.921875 162.949219 L 85.601562 162.367188 L 71.117188 160.949219 C 63.875 160.238281 56.894531 159.605469 49.734375 158.039062 L 42.933594 156.554688 C 42.363281 156.429688 41.691406 154.902344 41.691406 154.324219 L 41.691406 123.617188 C 41.691406 121.03125 41.808594 118.707031 42.09375 116.164062 C 44.246094 115.484375 46.203125 115.164062 48.378906 115.21875 L 61.527344 155.167969 L 72.261719 155.054688 L 84.996094 117.773438 L 74.523438 117.585938 L 66.882812 139.808594 L 64.085938 131.96875 L 54.863281 104.925781 C 49.175781 105.335938 44.046875 106.261719 38.765625 108.109375 C 35.886719 109.113281 33.144531 112.023438 33.136719 115.542969 L 33.03125 156.136719 C 33.019531 159.910156 35.414062 163.042969 38.601562 164.464844 C 41.425781 165.722656 44.253906 166.144531 47.222656 166.660156 L 57.449219 168.433594 L 68.417969 169.949219 L 73.472656 170.402344 L 79.945312 170.980469 L 88.839844 171.832031 L 94.394531 172.304688 L 103.707031 172.714844 L 111.925781 173.113281 L 123.542969 173.636719 L 137.464844 174.082031 C 146.476562 174.375 155.390625 174.355469 164.398438 174.0625 L 177.476562 173.640625 L 189.15625 173.082031 L 197.746094 172.691406 L 206.652344 172.324219 L 213.039062 171.8125 L 221.023438 171.050781 L 225.195312 170.652344 L 238.589844 169.132812 L 235.664062 160.445312 L 221.039062 161.851562 Z M 104.675781 138.980469 L 102.054688 139.230469 L 99.28125 148.558594 L 108.144531 148.839844 C 108.792969 151.28125 109.488281 153.320312 110.558594 155.1875 L 120.230469 155.039062 L 107.828125 117.566406 L 96.929688 117.523438 L 94.488281 125.019531 L 92.1875 131.472656 L 84.144531 155.050781 L 94.6875 155.105469 L 100.09375 139.125 L 102.34375 132.417969 L 104.671875 138.96875 Z M 142.449219 142.691406 L 142.488281 155.144531 L 153.011719 155.144531 C 153.011719 155.144531 152.96875 142.703125 152.96875 142.703125 C 152.960938 140.851562 151.667969 138.675781 150.859375 137.367188 C 155.789062 133.046875 155.316406 126.140625 150.648438 121.230469 C 149.105469 119.605469 146.460938 118.730469 144.222656 118.113281 L 125.1875 118.027344 C 124.882812 117.617188 122.964844 117.660156 122.890625 118.203125 L 122.871094 155.097656 L 133.417969 155.117188 L 133.429688 127.835938 C 136.632812 127.613281 139.882812 127.480469 142.75 128.320312 C 143.539062 128.550781 143.527344 130.871094 143.003906 131.449219 C 142.480469 132.027344 141.089844 132.484375 140.132812 132.542969 L 138.242188 132.652344 C 137.875 132.679688 137.527344 133.648438 137.410156 134.058594 L 134.875 142.5625 L 142.449219 142.699219 Z M 185.164062 140.292969 L 185.164062 131.207031 C 185.164062 131.207031 170.003906 131.300781 170.003906 131.300781 C 169.75 129.851562 169.730469 128.539062 169.925781 126.859375 L 187.90625 126.796875 L 187.90625 118.054688 C 187.355469 117.535156 185.898438 117.667969 185.148438 118.082031 L 163.863281 118.015625 C 162.902344 117.355469 160.679688 117.523438 160.046875 118.605469 L 160.015625 152.003906 L 160.34375 155.105469 L 188.296875 155.105469 C 188.296875 155.105469 188.265625 146 188.265625 146 L 169.75 146 C 169.75 146 169.75 140.300781 169.75 140.300781 L 185.160156 140.285156 Z M 185.164062 140.292969 " fill-opacity="1" fill-rule="nonzero"/><path fill="#f5e642" d="M 90.628906 205.785156 L 90.386719 196.304688 L 87.96875 205.609375 L 83.753906 205.640625 L 81.242188 196.066406 L 81.011719 205.136719 C 80.398438 206.101562 77.804688 206.101562 76.890625 205.136719 L 76.902344 192.855469 L 84.097656 192.917969 L 86.027344 199.65625 L 87.867188 192.824219 L 94.949219 192.941406 L 95.035156 205.691406 L 90.621094 205.789062 Z M 90.628906 205.785156 " fill-opacity="1" fill-rule="nonzero"/><path fill="#f5e642" d="M 69.121094 205.664062 L 61.589844 205.882812 L 59.140625 197.019531 L 58.808594 205.148438 C 58.132812 206.125 55.410156 206.195312 54.589844 205.1875 L 54.699219 192.972656 L 61.992188 192.816406 C 62.8125 195.789062 63.253906 197.925781 64.546875 201.253906 L 65.019531 192.824219 L 69.085938 192.886719 L 69.128906 205.664062 Z M 69.121094 205.664062 " fill-opacity="1" fill-rule="nonzero"/><path fill="#f5e642" d="M 135.183594 199.4375 C 136.257812 200.046875 137.398438 201.171875 137.546875 202.140625 C 137.71875 203.304688 136.53125 205.664062 135.4375 205.671875 L 124.46875 205.785156 L 124.410156 192.960938 C 130.234375 192.835938 137.179688 191.898438 137.214844 195.980469 C 137.230469 197.167969 136.527344 198.355469 135.175781 199.429688 Z M 132.1875 197.242188 C 132.542969 196.472656 131.984375 195.351562 131.492188 195.304688 L 129.328125 195.09375 L 129.148438 197.832031 C 130.011719 197.953125 131.847656 197.890625 132.183594 197.238281 Z M 132.320312 201.277344 C 131.957031 200.460938 129.652344 200.265625 129.335938 200.949219 C 129.054688 201.550781 129.1875 203.222656 129.539062 203.433594 L 131.828125 203.167969 C 132.261719 203.117188 132.535156 201.761719 132.320312 201.277344 Z M 132.320312 201.277344 " fill-opacity="1" fill-rule="nonzero"/><path fill="#f5e642" d="M 222.777344 205.914062 L 220.328125 205.675781 C 219.308594 205.578125 219.792969 202.4375 218.664062 201.679688 C 218.171875 201.351562 216.386719 201.511719 216.261719 202.035156 L 216.398438 205.796875 L 211.476562 205.707031 L 211.414062 192.949219 L 221.976562 193.226562 C 223.480469 193.265625 224.605469 194.863281 224.671875 196.441406 C 224.730469 197.652344 223.441406 198.988281 221.894531 199.996094 C 223.273438 200.667969 224.140625 201.835938 224.34375 203.277344 L 224.566406 204.894531 C 224.628906 205.34375 223.300781 205.976562 222.757812 205.921875 Z M 219.738281 196.902344 C 219.632812 195.898438 217.226562 195.339844 216.230469 195.570312 L 216.246094 198.394531 C 217.574219 198.820312 219.929688 198.703125 219.738281 196.902344 Z M 219.738281 196.902344 " fill-opacity="1" fill-rule="nonzero"/><path fill="#f5e642" d="M 114.515625 204.914062 C 111.539062 207.058594 107 206.691406 104.441406 204.339844 C 101.59375 201.730469 101.867188 196.527344 104.917969 194.171875 C 108.15625 191.671875 113.191406 192.171875 115.828125 195.285156 C 118.070312 197.9375 117.542969 202.738281 114.515625 204.914062 Z M 111.929688 199.25 C 111.886719 197.484375 111.65625 195.496094 109.644531 195.65625 C 108.320312 195.761719 107.652344 198.007812 107.652344 199.480469 C 107.652344 200.953125 108.332031 203.253906 109.628906 203.265625 C 111.761719 203.285156 111.980469 201.101562 111.929688 199.25 Z M 111.929688 199.25 " fill-opacity="1" fill-rule="nonzero"/><path fill="#f5e642" d="M 198.847656 203.394531 L 194.347656 203.351562 L 193.570312 205.785156 L 188.800781 205.691406 L 193.285156 192.921875 L 200.109375 192.824219 L 204.738281 205.660156 L 200.109375 205.675781 C 199.648438 205.675781 199.089844 204.222656 198.851562 203.390625 Z M 198.167969 200.109375 L 196.554688 195.714844 L 195.183594 200.140625 Z M 198.167969 200.109375 " fill-opacity="1" fill-rule="nonzero"/><path fill="#f5e642" d="M 254.25 203.351562 L 249.765625 203.394531 C 249.648438 204.003906 249.261719 205.355469 248.816406 205.539062 C 247.851562 205.945312 245.960938 205.84375 244.347656 205.714844 L 248.730469 192.804688 L 255.566406 192.859375 L 260.097656 205.304688 C 258.382812 205.789062 256.746094 205.859375 255.050781 205.691406 L 254.242188 203.347656 Z M 253.550781 200.097656 L 252.054688 195.808594 L 250.6875 200.214844 L 253.558594 200.097656 Z M 253.550781 200.097656 " fill-opacity="1" fill-rule="nonzero"/><path fill="#f5e642" d="M 168.480469 202.164062 C 169.308594 202.179688 169.515625 204.75 168.8125 205.769531 L 158.386719 205.808594 L 158.386719 192.886719 C 158.386719 192.886719 163.128906 192.898438 163.128906 192.898438 L 163.222656 202.066406 Z M 168.480469 202.164062 " fill-opacity="1" fill-rule="nonzero"/><path fill="#f5e642" d="M 46.789062 205.648438 L 41.628906 205.707031 L 41.578125 192.992188 L 46.566406 192.984375 Z M 46.789062 205.648438 " fill-opacity="1" fill-rule="nonzero"/><path fill="#f5e642" d="M 150.15625 205.070312 C 149.015625 206.0625 147.15625 206.039062 145.367188 205.558594 L 145.335938 192.890625 L 150.097656 192.902344 Z M 150.15625 205.070312 " fill-opacity="1" fill-rule="nonzero"/><path fill="#f5e642" d="M 181.777344 205.0625 C 180.789062 206.167969 178.140625 206.132812 176.992188 205.179688 L 176.917969 193.066406 L 181.742188 192.898438 L 181.773438 205.070312 Z M 181.777344 205.0625 " fill-opacity="1" fill-rule="nonzero"/><path fill="#f5e642" d="M 237.171875 205.097656 C 235.972656 205.933594 234.226562 205.914062 232.394531 205.527344 L 232.34375 192.886719 L 237.125 192.886719 C 237.125 192.886719 237.167969 205.09375 237.167969 205.09375 Z M 237.171875 205.097656 " fill-opacity="1" fill-rule="nonzero"/><path fill="#ffffff" d="M 240.554688 117.121094 L 249.246094 143.234375 L 251.773438 150.921875 L 254.175781 157.617188 L 260.136719 156.34375 L 260.195312 118.007812 C 260.195312 116.523438 259.277344 115.789062 257.855469 115.558594 L 244.738281 113.398438 L 229.859375 111.496094 L 226.097656 111.074219 L 219.625 110.632812 L 212.632812 110.101562 L 204.304688 109.414062 L 196.304688 108.984375 L 186.5625 108.550781 L 178.621094 108.324219 L 157.242188 108.039062 C 152.605469 107.976562 148.375 108.019531 143.730469 108.078125 L 122.785156 108.3125 L 113.476562 108.605469 L 104.671875 108.972656 L 95.824219 109.480469 L 90.167969 109.972656 L 85.980469 110.375 L 77.667969 110.875 L 66.429688 112.054688 L 63.546875 103.453125 L 74.640625 102.023438 L 80.421875 101.488281 L 86.957031 100.992188 L 92.585938 100.5625 L 99.546875 100.027344 L 105.535156 99.585938 L 116.152344 99.25 L 132.554688 98.957031 L 142.796875 98.695312 C 148.546875 98.554688 154.109375 98.683594 159.828125 98.789062 L 184.941406 99.25 L 196.386719 99.515625 L 201.425781 100.015625 L 207.984375 100.511719 L 214.5 101.003906 L 221.011719 101.492188 L 236.839844 103.234375 L 246.921875 104.652344 L 261.484375 107.480469 C 264.652344 108.09375 268.78125 110.992188 268.792969 114.789062 L 268.929688 156.628906 C 268.957031 164.378906 259.941406 165.804688 252.335938 167.078125 L 247.386719 167.902344 L 245.8125 163.09375 L 242.960938 154.800781 L 240.730469 148.304688 L 231.765625 148.144531 L 234.390625 140.597656 C 234.507812 140.261719 234.488281 139.09375 234.824219 138.980469 L 236.980469 138.242188 C 236.777344 136.457031 236.265625 134.449219 235.128906 132.226562 L 227.359375 155.160156 L 195.515625 155.097656 L 195.578125 117.492188 C 199.261719 118.195312 201.519531 118.203125 205.105469 117.730469 L 205.160156 142.703125 L 204.589844 145.96875 L 217.910156 146.0625 L 218.332031 150.617188 L 229.859375 117.183594 L 240.542969 117.125 Z M 240.554688 117.121094 " fill-opacity="1" fill-rule="nonzero"/><path fill="#ffffff" d="M 215.21875 162.433594 L 221.039062 161.851562 L 235.664062 160.445312 L 238.589844 169.132812 L 225.195312 170.652344 L 221.023438 171.050781 L 213.039062 171.8125 L 206.652344 172.324219 L 197.746094 172.691406 L 189.15625 173.082031 L 177.476562 173.640625 L 164.398438 174.0625 C 155.386719 174.355469 146.476562 174.367188 137.464844 174.082031 L 123.542969 173.636719 L 111.925781 173.113281 L 103.707031 172.714844 L 94.394531 172.304688 L 88.839844 171.832031 L 79.945312 170.980469 L 73.472656 170.402344 L 68.417969 169.949219 L 57.449219 168.433594 L 47.222656 166.660156 C 44.253906 166.144531 41.425781 165.726562 38.601562 164.464844 C 35.414062 163.042969 33.019531 159.910156 33.03125 156.136719 L 33.136719 115.542969 C 33.144531 112.023438 35.886719 109.113281 38.761719 108.109375 C 44.046875 106.261719 49.179688 105.335938 54.863281 104.925781 L 64.085938 131.96875 L 66.882812 139.808594 L 74.523438 117.585938 L 84.996094 117.773438 L 72.261719 155.054688 L 61.527344 155.167969 L 48.378906 115.21875 C 46.210938 115.164062 44.246094 115.484375 42.09375 116.164062 C 41.808594 118.707031 41.683594 121.03125 41.683594 123.617188 L 41.683594 154.324219 C 41.683594 154.902344 42.363281 156.429688 42.933594 156.554688 L 49.734375 158.039062 C 56.894531 159.605469 63.871094 160.238281 71.117188 160.949219 L 85.601562 162.367188 L 93.921875 162.949219 L 100.929688 163.296875 L 106.976562 163.523438 L 115.460938 163.933594 L 124.460938 164.367188 L 149.796875 164.738281 L 172.148438 164.601562 L 177.277344 164.296875 L 191.199219 163.738281 L 197.253906 163.453125 L 207.976562 162.898438 Z M 215.21875 162.433594 " fill-opacity="1" fill-rule="nonzero"/><path fill="#ffffff" d="M 142.449219 142.691406 L 134.875 142.554688 L 137.410156 134.050781 C 137.535156 133.636719 137.875 132.667969 138.242188 132.648438 L 140.132812 132.535156 C 141.089844 132.480469 142.476562 132.027344 143.003906 131.441406 C 143.53125 130.859375 143.539062 128.546875 142.75 128.316406 C 139.882812 127.476562 136.632812 127.605469 133.429688 127.832031 L 133.417969 155.113281 L 122.871094 155.09375 L 122.890625 118.195312 C 122.96875 117.660156 124.882812 117.617188 125.1875 118.023438 L 144.222656 118.109375 C 146.460938 118.722656 149.113281 119.601562 150.648438 121.222656 C 155.316406 126.132812 155.789062 133.039062 150.859375 137.359375 C 151.667969 138.675781 152.960938 140.851562 152.96875 142.699219 L 153.011719 155.144531 L 142.488281 155.144531 C 142.488281 155.144531 142.449219 142.691406 142.449219 142.691406 Z M 142.449219 142.691406 " fill-opacity="1" fill-rule="nonzero"/><path fill="#ffffff" d="M 185.164062 140.292969 L 169.757812 140.304688 L 169.757812 146.011719 C 169.757812 146.011719 188.265625 146.003906 188.265625 146.003906 L 188.296875 155.113281 L 160.34375 155.113281 C 160.34375 155.113281 160.015625 152.011719 160.015625 152.011719 L 160.046875 118.613281 C 160.679688 117.53125 162.898438 117.363281 163.863281 118.023438 L 185.148438 118.089844 C 185.898438 117.671875 187.351562 117.542969 187.914062 118.058594 L 187.914062 126.804688 C 187.914062 126.804688 169.925781 126.867188 169.925781 126.867188 C 169.730469 128.546875 169.742188 129.855469 170.003906 131.304688 L 185.160156 131.210938 L 185.160156 140.300781 Z M 185.164062 140.292969 " fill-opacity="1" fill-rule="nonzero"/><path fill="#ffffff" d="M 104.675781 138.980469 L 102.351562 132.429688 L 100.101562 139.136719 L 94.695312 155.117188 L 84.152344 155.0625 L 92.195312 131.484375 L 94.496094 125.035156 L 96.9375 117.535156 L 107.835938 117.582031 L 120.234375 155.050781 L 110.5625 155.199219 C 109.492188 153.335938 108.796875 151.296875 108.152344 148.851562 L 99.289062 148.574219 L 102.058594 139.242188 L 104.683594 138.992188 Z M 104.675781 138.980469 " fill-opacity="1" fill-rule="nonzero"/><path fill="#ffffff" d="M 132.1875 197.242188 C 131.851562 197.894531 130.011719 197.953125 129.15625 197.839844 L 129.335938 195.097656 L 131.496094 195.308594 C 131.988281 195.359375 132.546875 196.476562 132.195312 197.25 Z M 132.1875 197.242188 " fill-opacity="1" fill-rule="nonzero"/><path fill="#ffffff" d="M 132.320312 201.277344 C 132.535156 201.769531 132.261719 203.117188 131.828125 203.167969 L 129.539062 203.433594 C 129.191406 203.222656 129.054688 201.542969 129.335938 200.949219 C 129.652344 200.265625 131.957031 200.460938 132.320312 201.277344 Z M 132.320312 201.277344 " fill-opacity="1" fill-rule="nonzero"/><path fill="#ffffff" d="M 219.738281 196.902344 C 219.929688 198.703125 217.574219 198.820312 216.246094 198.394531 L 216.230469 195.570312 C 217.226562 195.339844 219.625 195.898438 219.738281 196.902344 Z M 219.738281 196.902344 " fill-opacity="1" fill-rule="nonzero"/><path fill="#ffffff" d="M 111.929688 199.25 C 111.980469 201.109375 111.757812 203.285156 109.628906 203.265625 C 108.332031 203.253906 107.648438 200.886719 107.652344 199.480469 C 107.660156 198.074219 108.320312 195.761719 109.644531 195.65625 C 111.65625 195.496094 111.886719 197.484375 111.929688 199.25 Z M 111.929688 199.25 " fill-opacity="1" fill-rule="nonzero"/><path fill="#ffffff" d="M 198.167969 200.109375 L 195.183594 200.144531 L 196.554688 195.714844 Z M 198.167969 200.109375 " fill-opacity="1" fill-rule="nonzero"/><path fill="#ffffff" d="M 253.550781 200.097656 L 250.6875 200.214844 L 252.054688 195.8125 Z M 253.550781 200.097656 " fill-opacity="1" fill-rule="nonzero"/></g></g></svg>