<?xml version="1.0" encoding="UTF-8"?>
<svg xmlns="http://www.w3.org/2000/svg" xmlns:xlink="http://www.w3.org/1999/xlink" viewBox="96.56 298.81 404.40 148.00">
<path fill-rule="nonzero" fill="#F5E642" fill-opacity="1" d="M 353.40625 378.542969 L 353.398438 363.921875 L 329.019531 364.074219 C 328.605469 361.742188 328.582031 359.636719 328.890625 356.933594 L 357.824219 356.839844 L 357.832031 342.769531 C 356.933594 341.941406 354.59375 342.152344 353.386719 342.820312 L 319.140625 342.714844 C 317.59375 341.65625 314.015625 341.929688 313 343.667969 L 312.949219 397.398438 L 313.480469 402.386719 L 358.445312 402.390625 L 358.402344 387.738281 L 328.613281 387.75 L 328.617188 378.566406 Z M 284.6875 382.398438 L 284.746094 402.429688 L 301.679688 402.433594 L 301.609375 382.417969 C 301.597656 379.441406 299.519531 375.941406 298.21875 373.824219 C 306.152344 366.875 305.386719 355.765625 297.878906 347.867188 C 295.402344 345.257812 291.136719 343.851562 287.535156 342.855469 L 256.914062 342.71875 C 256.417969 342.0625 253.335938 342.128906 253.210938 342.996094 L 253.175781 402.355469 L 270.152344 402.382812 L 270.171875 358.492188 C 275.320312 358.128906 280.550781 357.921875 285.15625 359.269531 C 286.425781 359.640625 286.410156 363.375 285.570312 364.304688 C 284.71875 365.238281 282.488281 365.96875 280.953125 366.0625 L 277.917969 366.238281 C 277.324219 366.273438 276.773438 367.835938 276.574219 368.503906 L 272.496094 382.183594 Z M 223.925781 376.429688 L 219.703125 376.832031 L 215.246094 391.84375 L 229.507812 392.292969 C 230.550781 396.222656 231.667969 399.507812 233.390625 402.503906 L 248.949219 402.265625 L 228.996094 341.988281 L 211.464844 341.925781 L 207.539062 353.980469 L 203.839844 364.363281 L 190.898438 402.296875 L 207.859375 402.386719 L 216.5625 376.675781 L 220.1875 365.886719 Z M 401.757812 414.164062 L 390.105469 414.914062 L 372.859375 415.800781 L 363.117188 416.261719 L 340.71875 417.164062 L 332.464844 417.65625 L 296.503906 417.875 L 255.746094 417.273438 L 241.269531 416.578125 L 227.621094 415.917969 L 217.890625 415.554688 L 206.621094 415 L 193.234375 414.058594 L 169.933594 411.777344 C 158.28125 410.636719 147.058594 409.621094 135.539062 407.097656 L 124.601562 404.703125 C 123.683594 404.503906 122.601562 402.042969 122.601562 401.109375 L 122.59375 351.714844 C 122.589844 347.554688 122.789062 343.816406 123.246094 339.726562 C 126.703125 338.636719 129.859375 338.113281 133.355469 338.203125 L 154.507812 402.472656 L 171.773438 402.289062 L 192.261719 342.308594 L 175.410156 342.011719 L 163.121094 377.757812 L 158.621094 365.140625 L 143.777344 321.628906 C 134.632812 322.289062 126.378906 323.777344 117.875 326.75 C 113.246094 328.367188 108.839844 333.046875 108.824219 338.710938 L 108.652344 404.015625 C 108.636719 410.085938 112.480469 415.125 117.609375 417.414062 C 122.148438 419.4375 126.703125 420.113281 131.480469 420.941406 L 147.925781 423.792969 L 165.574219 426.234375 L 173.699219 426.96875 L 184.113281 427.898438 L 198.421875 429.269531 L 207.367188 430.023438 L 222.347656 430.691406 L 235.566406 431.328125 L 254.261719 432.167969 L 276.65625 432.890625 C 291.160156 433.355469 305.492188 433.332031 319.988281 432.863281 L 341.027344 432.1875 L 359.820312 431.289062 L 373.636719 430.660156 L 387.96875 430.070312 L 398.238281 429.253906 L 411.089844 428.027344 L 417.804688 427.386719 L 439.355469 424.941406 L 434.648438 410.964844 L 411.117188 413.222656 Z M 442.523438 341.257812 L 425.339844 341.351562 L 406.792969 395.144531 L 406.117188 387.816406 L 384.683594 387.671875 L 385.601562 382.421875 L 385.515625 342.242188 C 379.734375 343.003906 376.109375 343 370.179688 341.863281 L 370.078125 402.367188 L 421.304688 402.46875 L 433.804688 365.566406 C 435.628906 369.144531 436.457031 372.375 436.78125 375.242188 L 433.316406 376.433594 C 432.773438 376.621094 432.800781 378.496094 432.609375 379.039062 L 428.390625 391.175781 L 442.8125 391.441406 L 446.40625 401.890625 L 450.996094 415.230469 L 453.519531 422.96875 L 461.476562 421.640625 C 473.71875 419.597656 488.21875 417.300781 488.179688 404.835938 L 487.957031 337.527344 C 487.9375 331.414062 481.296875 326.757812 476.195312 325.765625 L 452.761719 321.214844 L 436.542969 318.929688 L 411.085938 316.128906 L 390.125 314.542969 L 379.574219 313.742188 L 371.46875 312.945312 L 353.058594 312.519531 L 312.65625 311.777344 C 303.460938 311.609375 294.511719 311.394531 285.261719 311.628906 L 268.777344 312.042969 L 242.390625 312.515625 L 225.3125 313.054688 L 215.683594 313.757812 L 204.480469 314.613281 L 195.421875 315.304688 L 184.914062 316.101562 L 175.613281 316.964844 L 157.761719 319.265625 L 162.40625 333.105469 L 180.488281 331.207031 L 193.855469 330.414062 L 200.601562 329.761719 L 209.695312 328.972656 L 223.925781 328.152344 L 238.09375 327.558594 L 253.0625 327.089844 L 286.757812 326.714844 C 294.234375 326.628906 301.046875 326.558594 308.503906 326.65625 L 342.898438 327.109375 L 355.675781 327.46875 L 371.34375 328.167969 L 384.214844 328.859375 L 397.613281 329.964844 L 408.863281 330.816406 L 419.273438 331.527344 L 425.320312 332.210938 L 449.257812 335.265625 L 470.355469 338.75 C 472.640625 339.128906 474.125 340.300781 474.121094 342.691406 L 474.019531 404.359375 L 464.433594 406.414062 L 460.570312 395.640625 L 456.5 383.265625 Z M 363.386719 440.277344 L 350.421875 440.527344 L 325.691406 441.726562 L 275.558594 441.804688 L 244.886719 440.6875 L 227.621094 439.988281 L 214.332031 439.355469 L 184.242188 436.878906 L 161.613281 434.398438 C 144.597656 432.535156 128.207031 429.871094 111.679688 425.027344 C 107.039062 423.667969 101.601562 418.09375 101.597656 413.125 L 101.5625 332.183594 C 101.5625 327.75 106.441406 322.625 110.164062 321.171875 C 118.246094 318.011719 126.050781 316.832031 134.4375 315.28125 C 145.515625 313.234375 156.378906 311.277344 167.71875 310.339844 L 175.261719 309.71875 L 184.722656 308.589844 L 196.886719 307.429688 L 209.613281 306.613281 L 223.117188 305.820312 L 243.359375 304.707031 L 273.5625 303.863281 L 322.460938 303.808594 L 354.03125 304.753906 L 373.648438 305.816406 L 384.128906 306.4375 L 391.109375 306.867188 L 417.074219 309.253906 L 423.871094 309.984375 L 432.148438 310.832031 L 440.625 312.0625 L 464.097656 315.679688 C 472.109375 316.917969 480.109375 318.25 487.390625 321.65625 C 491.671875 323.664062 495.40625 328.347656 495.367188 332.859375 L 495.1875 353.238281 L 495.035156 395.113281 C 495.015625 401.65625 495.960938 408.023438 495.027344 414.515625 C 494.3125 419.488281 489.675781 423.6875 485.007812 424.933594 L 474.257812 427.808594 C 448.90625 433.195312 423.59375 436.125 397.738281 438.144531 L 384.132812 439.210938 L 370.617188 439.675781 Z M 363.386719 440.277344 "/>
</svg>
